<svg width="45" height="45" viewBox="0 0 45 45" fill="none" xmlns="http://www.w3.org/2000/svg">
<path d="M37.6996 7.30044C33.6373 3.2382 28.2445 1 22.4992 1C22.2084 1 21.9705 1.23792 21.9705 1.52871V9.97922C17.6087 10.2524 14.1456 13.8917 14.1456 18.3152V26.6776C14.1456 31.2862 17.8906 35.0312 22.4992 35.0312C27.1078 35.0312 30.8528 31.2862 30.8528 26.6776V18.3152C30.8528 13.8828 27.3898 10.2524 23.0279 9.97922V2.06623C34.0603 2.34821 42.9426 11.4067 42.9426 22.5008C42.9426 29.7177 39.2504 36.256 33.0734 40.001C26.6936 43.8694 18.9128 43.9311 11.7312 40.1773C8.76161 38.6264 6.3648 36.2296 4.81393 33.2424C-0.0149381 23.9724 1.58881 13.7683 8.89379 7.24757C9.11409 7.05371 9.13171 6.71886 8.93785 6.49856C8.74399 6.27827 8.40914 6.26064 8.18885 6.4545C4.67294 9.5915 2.25851 13.8564 1.37733 18.4562C0.425652 23.4789 1.2804 28.7572 3.87107 33.727C5.52768 36.8993 8.07429 39.4547 11.2377 41.1113C14.9299 43.0411 18.7806 44.0016 22.5345 44.0016C26.4205 44.0016 30.2095 42.9706 33.6285 40.8998C36.7391 39.0141 39.3386 36.3617 41.145 33.2159C43.0131 29.9732 44 26.2634 44 22.5008C44 16.7555 41.7618 11.3627 37.6996 7.30044ZM29.7954 18.324V26.6864C29.7954 30.7134 26.5262 33.9826 22.4992 33.9826C18.4722 33.9826 15.203 30.7134 15.203 26.6864V18.324C15.203 14.297 18.4722 11.0278 22.4992 11.0278C26.5262 11.0278 29.7954 14.297 29.7954 18.324Z" fill="#E3E3E3" fill-opacity="0.5"/>
<path d="M23.1779 9.83949V2.22069C34.0578 2.58041 42.7926 11.5399 42.7926 22.5008C42.7926 29.665 39.128 36.1548 32.9956 39.8728L33.0668 39.9902L32.9956 39.8728C26.6653 43.7112 18.9407 43.7764 11.8007 40.0443L11.8006 40.0443C8.85828 38.5076 6.48373 36.1331 4.94706 33.1733L4.94696 33.1731C0.146886 23.9583 1.74453 13.8306 8.99333 7.35978C9.27685 7.10985 9.29762 6.68034 9.05046 6.39947C8.80059 6.11552 8.37077 6.0946 8.08975 6.34189L8.08898 6.34258C4.54852 9.50149 2.11739 13.7958 1.23 18.4279L1.22995 18.4282C0.271425 23.4871 1.13329 28.7995 3.73805 33.7964L3.7381 33.7965C5.40881 36.9957 7.97746 39.5733 11.1681 41.2442L11.1682 41.2442C14.8803 43.1844 18.7548 44.1516 22.5345 44.1516C26.4476 44.1516 30.2636 43.1132 33.7062 41.0281L33.7063 41.0281C36.8383 39.1294 39.4558 36.4587 41.275 33.2908C43.1563 30.0251 44.15 26.2895 44.15 22.5008C44.15 16.7156 41.8959 11.2847 37.8056 7.19437C33.7153 3.10406 28.2844 0.85 22.4992 0.85C22.1256 0.85 21.8205 1.15508 21.8205 1.52871V9.83949C17.4465 10.1861 13.9956 13.8596 13.9956 18.3152V26.6776C13.9956 31.369 17.8078 35.1812 22.4992 35.1812C27.1906 35.1812 31.0028 31.369 31.0028 26.6776V18.3152C31.0028 13.8508 27.5518 10.1859 23.1779 9.83949ZM29.6454 18.324V26.6864C29.6454 30.6305 26.4434 33.8326 22.4992 33.8326C18.5551 33.8326 15.353 30.6305 15.353 26.6864V18.324C15.353 14.3798 18.5551 11.1778 22.4992 11.1778C26.4434 11.1778 29.6454 14.3798 29.6454 18.324Z" stroke="#E3E3E3" stroke-opacity="0.5" stroke-width="0.3"/>
<path d="M22.4989 14.4997C22.2081 14.4997 21.9702 14.7376 21.9702 15.0284V19.3902C21.9702 19.681 22.2081 19.919 22.4989 19.919C22.7897 19.919 23.0276 19.681 23.0276 19.3902V15.0284C23.0276 14.7376 22.7897 14.4997 22.4989 14.4997Z" fill="#E3E3E3" fill-opacity="0.5"/>
<path d="M22.4989 14.3497C22.1253 14.3497 21.8202 14.6548 21.8202 15.0284V19.3902C21.8202 19.7639 22.1253 20.069 22.4989 20.069C22.8726 20.069 23.1776 19.7639 23.1776 19.3902V15.0284C23.1776 14.6548 22.8726 14.3497 22.4989 14.3497Z" stroke="#E3E3E3" stroke-opacity="0.5" stroke-width="0.3"/>
</svg>
